<svg width="2333" height="874" viewBox="0 0 2333 874" fill="none" xmlns="http://www.w3.org/2000/svg">
<path fill-rule="evenodd" clip-rule="evenodd" d="M952.069 736.445V146.661H1504.97V262.784H1099.76V736.445H952.069Z" fill="#F6C212"/>
<path d="M453.188 -0.000183105V424.792C453.188 550.226 413.118 632.439 300.351 632.439C187.582 632.439 147.547 550.226 147.547 424.792V-0.000183105H0V470.116C0 667.203 111.688 748.411 300.351 748.411C488.999 748.411 600.69 667.203 600.69 470.116V115.936H771.207V735.748H918.755V115.936H1505.87V-0.000183105H453.188Z" fill="#231F20" stroke="#ffffff"  stroke-width="2"/>
<path d="M1132.25 736.445V297.478H1504.97V413.53H1271.05V736.445H1132.25Z" fill="#231F20" stroke="#ffffff" stroke-width="2"/>
<path d="M1568 735V297H1709.88C1763.65 297 1798.69 299.191 1815.02 303.573C1840.11 310.146 1861.12 324.487 1878.05 346.596C1894.97 368.506 1903.44 396.889 1903.44 431.746C1903.44 458.636 1898.56 481.243 1888.8 499.568C1879.04 517.892 1866.6 532.333 1851.46 542.889C1836.53 553.247 1821.29 560.119 1805.76 563.505C1784.65 567.688 1754.09 569.779 1714.06 569.779H1656.41V735H1568ZM1656.41 371.095V495.385H1704.8C1739.65 495.385 1762.95 493.094 1774.7 488.513C1786.45 483.932 1795.61 476.761 1802.18 467.001C1808.95 457.241 1812.33 445.888 1812.33 432.941C1812.33 417.007 1807.65 403.861 1798.29 393.503C1788.94 383.146 1777.09 376.673 1762.75 374.083C1752.2 372.091 1730.99 371.095 1699.13 371.095H1656.41Z" fill="#231F20" stroke="#ffffff" stroke-width="2"/>
<path d="M1934.32 735V297H2120.41C2167.2 297 2201.15 300.984 2222.26 308.951C2243.57 316.719 2260.59 330.662 2273.34 350.779C2286.08 370.896 2292.46 393.902 2292.46 419.795C2292.46 452.66 2282.8 479.849 2263.48 501.36C2244.17 522.673 2215.29 536.117 2176.86 541.694C2195.98 552.849 2211.71 565.098 2224.05 578.443C2236.6 591.789 2253.43 615.491 2274.53 649.551L2328 735H2222.26L2158.34 639.692C2135.64 605.632 2120.11 584.22 2111.74 575.456C2103.38 566.492 2094.52 560.417 2085.16 557.231C2075.8 553.844 2060.97 552.151 2040.65 552.151H2022.73V735H1934.32ZM2022.73 482.239H2088.15C2130.56 482.239 2157.05 480.446 2167.6 476.861C2178.15 473.276 2186.42 467.101 2192.39 458.337C2198.37 449.573 2201.35 438.618 2201.35 425.472C2201.35 410.733 2197.37 398.881 2189.4 389.918C2181.64 380.756 2170.59 374.98 2156.25 372.589C2149.08 371.593 2127.57 371.095 2091.73 371.095H2022.73V482.239Z" fill="#231F20" stroke="#ffffff"  stroke-width="2"/>
<path d="M11.3164 791.008H24.0352V825.125C24.0352 830.539 24.1927 834.048 24.5078 835.652C25.0521 838.23 26.3411 840.307 28.375 841.883C30.4375 843.43 33.2448 844.203 36.7969 844.203C40.4062 844.203 43.1276 843.473 44.9609 842.012C46.7943 840.522 47.8971 838.703 48.2695 836.555C48.6419 834.406 48.8281 830.84 48.8281 825.855V791.008H61.5469V824.094C61.5469 831.656 61.2031 836.999 60.5156 840.121C59.8281 843.243 58.5534 845.879 56.6914 848.027C54.8581 850.176 52.3945 851.895 49.3008 853.184C46.207 854.444 42.168 855.074 37.1836 855.074C31.168 855.074 26.599 854.387 23.4766 853.012C20.3828 851.608 17.9336 849.803 16.1289 847.598C14.3242 845.363 13.1354 843.029 12.5625 840.594C11.7318 836.984 11.3164 831.656 11.3164 824.609V791.008ZM75.125 854V791.008H87.5L113.281 833.074V791.008H125.098V854H112.336L86.9414 812.922V854H75.125ZM138.203 854V791.008H150.922V854H138.203ZM179.152 854L156.637 791.008H170.43L186.371 837.629L201.797 791.008H215.289L192.73 854H179.152ZM221.777 854V791.008H268.484V801.664H234.496V815.629H266.121V826.242H234.496V843.387H269.688V854H221.777ZM280.516 854V791.008H307.285C314.017 791.008 318.901 791.581 321.938 792.727C325.003 793.844 327.452 795.849 329.285 798.742C331.118 801.635 332.035 804.944 332.035 808.668C332.035 813.395 330.646 817.305 327.867 820.398C325.089 823.464 320.935 825.397 315.406 826.199C318.156 827.803 320.419 829.565 322.195 831.484C324 833.404 326.421 836.812 329.457 841.711L337.148 854H321.938L312.742 840.293C309.477 835.395 307.242 832.315 306.039 831.055C304.836 829.766 303.561 828.892 302.215 828.434C300.868 827.947 298.734 827.703 295.812 827.703H293.234V854H280.516ZM293.234 817.648H302.645C308.746 817.648 312.556 817.391 314.074 816.875C315.592 816.359 316.781 815.471 317.641 814.211C318.5 812.951 318.93 811.375 318.93 809.484C318.93 807.365 318.357 805.66 317.211 804.371C316.094 803.053 314.504 802.223 312.441 801.879C311.41 801.736 308.316 801.664 303.16 801.664H293.234V817.648ZM340.844 833.504L353.219 832.301C353.964 836.454 355.467 839.505 357.73 841.453C360.022 843.401 363.102 844.375 366.969 844.375C371.065 844.375 374.145 843.516 376.207 841.797C378.298 840.049 379.344 838.016 379.344 835.695C379.344 834.206 378.9 832.945 378.012 831.914C377.152 830.854 375.634 829.938 373.457 829.164C371.967 828.648 368.573 827.732 363.273 826.414C356.456 824.724 351.672 822.647 348.922 820.184C345.055 816.717 343.121 812.492 343.121 807.508C343.121 804.299 344.023 801.306 345.828 798.527C347.661 795.72 350.283 793.586 353.691 792.125C357.129 790.664 361.268 789.934 366.109 789.934C374.016 789.934 379.96 791.667 383.941 795.133C387.952 798.599 390.057 803.225 390.258 809.012L377.539 809.57C376.995 806.333 375.82 804.013 374.016 802.609C372.24 801.177 369.561 800.461 365.98 800.461C362.285 800.461 359.392 801.22 357.301 802.738C355.954 803.712 355.281 805.016 355.281 806.648C355.281 808.138 355.911 809.413 357.172 810.473C358.776 811.819 362.672 813.223 368.859 814.684C375.047 816.145 379.616 817.663 382.566 819.238C385.546 820.785 387.866 822.919 389.527 825.641C391.217 828.333 392.062 831.671 392.062 835.652C392.062 839.262 391.06 842.642 389.055 845.793C387.049 848.944 384.214 851.293 380.547 852.84C376.88 854.358 372.311 855.117 366.84 855.117C358.876 855.117 352.76 853.284 348.492 849.617C344.224 845.922 341.674 840.551 340.844 833.504ZM402.375 854V791.008H415.094V854H402.375ZM427.211 791.008H450.457C455.699 791.008 459.695 791.409 462.445 792.211C466.141 793.299 469.306 795.233 471.941 798.012C474.577 800.79 476.582 804.199 477.957 808.238C479.332 812.249 480.02 817.204 480.02 823.105C480.02 828.29 479.375 832.759 478.086 836.512C476.51 841.095 474.262 844.805 471.34 847.641C469.134 849.789 466.155 851.465 462.402 852.668C459.595 853.556 455.842 854 451.145 854H427.211V791.008ZM439.93 801.664V843.387H449.426C452.978 843.387 455.542 843.186 457.117 842.785C459.18 842.27 460.884 841.396 462.23 840.164C463.605 838.932 464.723 836.913 465.582 834.105C466.441 831.27 466.871 827.417 466.871 822.547C466.871 817.677 466.441 813.939 465.582 811.332C464.723 808.725 463.52 806.691 461.973 805.23C460.426 803.77 458.464 802.781 456.086 802.266C454.31 801.865 450.829 801.664 445.645 801.664H439.93ZM547.652 854H533.816L528.316 839.691H503.137L497.938 854H484.445L508.98 791.008H522.43L547.652 854ZM524.234 829.078L515.555 805.703L507.047 829.078H524.234ZM554.398 791.008H577.645C582.887 791.008 586.883 791.409 589.633 792.211C593.328 793.299 596.493 795.233 599.129 798.012C601.764 800.79 603.77 804.199 605.145 808.238C606.52 812.249 607.207 817.204 607.207 823.105C607.207 828.29 606.562 832.759 605.273 836.512C603.698 841.095 601.449 844.805 598.527 847.641C596.322 849.789 593.342 851.465 589.59 852.668C586.783 853.556 583.03 854 578.332 854H554.398V791.008ZM567.117 801.664V843.387H576.613C580.165 843.387 582.729 843.186 584.305 842.785C586.367 842.27 588.072 841.396 589.418 840.164C590.793 838.932 591.91 836.913 592.77 834.105C593.629 831.27 594.059 827.417 594.059 822.547C594.059 817.677 593.629 813.939 592.77 811.332C591.91 808.725 590.707 806.691 589.16 805.23C587.613 803.77 585.651 802.781 583.273 802.266C581.497 801.865 578.017 801.664 572.832 801.664H567.117ZM618.035 854V791.008H664.742V801.664H630.754V815.629H662.379V826.242H630.754V843.387H665.945V854H618.035ZM715.402 854V801.664H696.711V791.008H746.77V801.664H728.121V854H715.402ZM755.02 854V791.008H801.727V801.664H767.738V815.629H799.363V826.242H767.738V843.387H802.93V854H755.02ZM854.02 830.84L866.352 834.75C864.461 841.625 861.31 846.738 856.898 850.09C852.516 853.413 846.944 855.074 840.184 855.074C831.819 855.074 824.944 852.224 819.559 846.523C814.173 840.794 811.48 832.974 811.48 823.062C811.48 812.578 814.188 804.443 819.602 798.656C825.016 792.841 832.134 789.934 840.957 789.934C848.663 789.934 854.922 792.211 859.734 796.766C862.599 799.458 864.747 803.326 866.18 808.367L853.59 811.375C852.845 808.109 851.284 805.531 848.906 803.641C846.557 801.75 843.693 800.805 840.312 800.805C835.643 800.805 831.848 802.48 828.926 805.832C826.033 809.184 824.586 814.612 824.586 822.117C824.586 830.081 826.018 835.753 828.883 839.133C831.747 842.513 835.471 844.203 840.055 844.203C843.435 844.203 846.342 843.129 848.777 840.98C851.212 838.832 852.96 835.452 854.02 830.84ZM877.438 854V791.008H889.812L915.594 833.074V791.008H927.41V854H914.648L889.254 812.922V854H877.438ZM938.324 822.891C938.324 816.474 939.284 811.089 941.203 806.734C942.635 803.526 944.583 800.647 947.047 798.098C949.539 795.548 952.26 793.658 955.211 792.426C959.135 790.764 963.661 789.934 968.789 789.934C978.07 789.934 985.49 792.812 991.047 798.57C996.633 804.328 999.426 812.335 999.426 822.59C999.426 832.759 996.661 840.723 991.133 846.48C985.604 852.21 978.214 855.074 968.961 855.074C959.594 855.074 952.146 852.224 946.617 846.523C941.089 840.794 938.324 832.917 938.324 822.891ZM951.43 822.461C951.43 829.594 953.077 835.008 956.371 838.703C959.665 842.37 963.848 844.203 968.918 844.203C973.988 844.203 978.142 842.384 981.379 838.746C984.645 835.079 986.277 829.594 986.277 822.289C986.277 815.07 984.688 809.685 981.508 806.133C978.357 802.581 974.16 800.805 968.918 800.805C963.676 800.805 959.451 802.609 956.242 806.219C953.034 809.799 951.43 815.214 951.43 822.461ZM1009.74 854V791.523H1022.46V843.387H1054.08V854H1009.74ZM1060.61 822.891C1060.61 816.474 1061.57 811.089 1063.49 806.734C1064.92 803.526 1066.87 800.647 1069.34 798.098C1071.83 795.548 1074.55 793.658 1077.5 792.426C1081.42 790.764 1085.95 789.934 1091.08 789.934C1100.36 789.934 1107.78 792.812 1113.34 798.57C1118.92 804.328 1121.71 812.335 1121.71 822.59C1121.71 832.759 1118.95 840.723 1113.42 846.48C1107.89 852.21 1100.5 855.074 1091.25 855.074C1081.88 855.074 1074.43 852.224 1068.91 846.523C1063.38 840.794 1060.61 832.917 1060.61 822.891ZM1073.72 822.461C1073.72 829.594 1075.37 835.008 1078.66 838.703C1081.95 842.37 1086.14 844.203 1091.21 844.203C1096.28 844.203 1100.43 842.384 1103.67 838.746C1106.93 835.079 1108.57 829.594 1108.57 822.289C1108.57 815.07 1106.98 809.685 1103.8 806.133C1100.65 802.581 1096.45 800.805 1091.21 800.805C1085.96 800.805 1081.74 802.609 1078.53 806.219C1075.32 809.799 1073.72 815.214 1073.72 822.461ZM1083.34 787.398L1089.27 774.551H1102.81L1090.99 787.398H1083.34ZM1160.99 830.84V820.227H1188.4V845.32C1185.74 847.898 1181.87 850.176 1176.8 852.152C1171.76 854.1 1166.65 855.074 1161.46 855.074C1154.87 855.074 1149.13 853.699 1144.23 850.949C1139.33 848.171 1135.65 844.217 1133.19 839.09C1130.72 833.934 1129.49 828.333 1129.49 822.289C1129.49 815.729 1130.87 809.9 1133.62 804.801C1136.37 799.702 1140.39 795.792 1145.69 793.07C1149.73 790.979 1154.76 789.934 1160.77 789.934C1168.59 789.934 1174.7 791.581 1179.08 794.875C1183.49 798.141 1186.33 802.667 1187.59 808.453L1174.95 810.816C1174.07 807.723 1172.39 805.288 1169.93 803.512C1167.49 801.707 1164.44 800.805 1160.77 800.805C1155.22 800.805 1150.79 802.566 1147.5 806.09C1144.23 809.613 1142.6 814.841 1142.6 821.773C1142.6 829.25 1144.26 834.865 1147.58 838.617C1150.9 842.341 1155.26 844.203 1160.64 844.203C1163.31 844.203 1165.97 843.688 1168.64 842.656C1171.33 841.596 1173.64 840.322 1175.55 838.832V830.84H1160.99ZM1199.79 854V791.008H1212.51V854H1199.79ZM1264.97 830.84L1277.3 834.75C1275.41 841.625 1272.26 846.738 1267.85 850.09C1263.47 853.413 1257.9 855.074 1251.14 855.074C1242.77 855.074 1235.9 852.224 1230.51 846.523C1225.13 840.794 1222.43 832.974 1222.43 823.062C1222.43 812.578 1225.14 804.443 1230.55 798.656C1235.97 792.841 1243.09 789.934 1251.91 789.934C1259.62 789.934 1265.88 792.211 1270.69 796.766C1273.55 799.458 1275.7 803.326 1277.13 808.367L1264.54 811.375C1263.8 808.109 1262.24 805.531 1259.86 803.641C1257.51 801.75 1254.65 800.805 1251.27 800.805C1246.6 800.805 1242.8 802.48 1239.88 805.832C1236.99 809.184 1235.54 814.612 1235.54 822.117C1235.54 830.081 1236.97 835.753 1239.84 839.133C1242.7 842.513 1246.42 844.203 1251.01 844.203C1254.39 844.203 1257.3 843.129 1259.73 840.98C1262.17 838.832 1263.91 835.452 1264.97 830.84ZM1345.07 854H1331.23L1325.73 839.691H1300.55L1295.35 854H1281.86L1306.39 791.008H1319.84L1345.07 854ZM1321.65 829.078L1312.97 805.703L1304.46 829.078H1321.65ZM1373.17 854V791.008H1416.35V801.664H1385.89V816.574H1412.18V827.23H1385.89V854H1373.17ZM1426.88 854V791.008H1473.59V801.664H1439.6V815.629H1471.22V826.242H1439.6V843.387H1474.79V854H1426.88ZM1485.53 791.008H1508.78C1514.02 791.008 1518.02 791.409 1520.77 792.211C1524.46 793.299 1527.63 795.233 1530.26 798.012C1532.9 800.79 1534.9 804.199 1536.28 808.238C1537.65 812.249 1538.34 817.204 1538.34 823.105C1538.34 828.29 1537.7 832.759 1536.41 836.512C1534.83 841.095 1532.58 844.805 1529.66 847.641C1527.45 849.789 1524.48 851.465 1520.72 852.668C1517.92 853.556 1514.16 854 1509.46 854H1485.53V791.008ZM1498.25 801.664V843.387H1507.75C1511.3 843.387 1513.86 843.186 1515.44 842.785C1517.5 842.27 1519.2 841.396 1520.55 840.164C1521.93 838.932 1523.04 836.913 1523.9 834.105C1524.76 831.27 1525.19 827.417 1525.19 822.547C1525.19 817.677 1524.76 813.939 1523.9 811.332C1523.04 808.725 1521.84 806.691 1520.29 805.23C1518.75 803.77 1516.78 802.781 1514.41 802.266C1512.63 801.865 1509.15 801.664 1503.96 801.664H1498.25ZM1549.17 854V791.008H1595.88V801.664H1561.89V815.629H1593.51V826.242H1561.89V843.387H1597.08V854H1549.17ZM1607.91 854V791.008H1634.68C1641.41 791.008 1646.29 791.581 1649.33 792.727C1652.39 793.844 1654.84 795.849 1656.68 798.742C1658.51 801.635 1659.43 804.944 1659.43 808.668C1659.43 813.395 1658.04 817.305 1655.26 820.398C1652.48 823.464 1648.33 825.397 1642.8 826.199C1645.55 827.803 1647.81 829.565 1649.59 831.484C1651.39 833.404 1653.81 836.812 1656.85 841.711L1664.54 854H1649.33L1640.13 840.293C1636.87 835.395 1634.63 832.315 1633.43 831.055C1632.23 829.766 1630.95 828.892 1629.61 828.434C1628.26 827.947 1626.12 827.703 1623.2 827.703H1620.62V854H1607.91ZM1620.62 817.648H1630.04C1636.14 817.648 1639.95 817.391 1641.46 816.875C1642.98 816.359 1644.17 815.471 1645.03 814.211C1645.89 812.951 1646.32 811.375 1646.32 809.484C1646.32 807.365 1645.75 805.66 1644.6 804.371C1643.48 803.053 1641.89 802.223 1639.83 801.879C1638.8 801.736 1635.71 801.664 1630.55 801.664H1620.62V817.648ZM1728.26 854H1714.43L1708.93 839.691H1683.75L1678.55 854H1665.05L1689.59 791.008H1703.04L1728.26 854ZM1704.84 829.078L1696.16 805.703L1687.66 829.078H1704.84ZM1735.39 854V791.523H1748.11V843.387H1779.74V854H1735.39ZM1811.66 791.008H1834.91C1840.15 791.008 1844.15 791.409 1846.9 792.211C1850.59 793.299 1853.76 795.233 1856.39 798.012C1859.03 800.79 1861.04 804.199 1862.41 808.238C1863.79 812.249 1864.47 817.204 1864.47 823.105C1864.47 828.29 1863.83 832.759 1862.54 836.512C1860.96 841.095 1858.71 844.805 1855.79 847.641C1853.59 849.789 1850.61 851.465 1846.86 852.668C1844.05 853.556 1840.3 854 1835.6 854H1811.66V791.008ZM1824.38 801.664V843.387H1833.88C1837.43 843.387 1839.99 843.186 1841.57 842.785C1843.63 842.27 1845.34 841.396 1846.68 840.164C1848.06 838.932 1849.18 836.913 1850.04 834.105C1850.89 831.27 1851.32 827.417 1851.32 822.547C1851.32 817.677 1850.89 813.939 1850.04 811.332C1849.18 808.725 1847.97 806.691 1846.43 805.23C1844.88 803.77 1842.92 802.781 1840.54 802.266C1838.76 801.865 1835.28 801.664 1830.1 801.664H1824.38ZM1872.72 822.891C1872.72 816.474 1873.68 811.089 1875.6 806.734C1877.03 803.526 1878.98 800.647 1881.45 798.098C1883.94 795.548 1886.66 793.658 1889.61 792.426C1893.53 790.764 1898.06 789.934 1903.19 789.934C1912.47 789.934 1919.89 792.812 1925.45 798.57C1931.03 804.328 1933.82 812.335 1933.82 822.59C1933.82 832.759 1931.06 840.723 1925.53 846.48C1920 852.21 1912.61 855.074 1903.36 855.074C1893.99 855.074 1886.54 852.224 1881.02 846.523C1875.49 840.794 1872.72 832.917 1872.72 822.891ZM1885.83 822.461C1885.83 829.594 1887.48 835.008 1890.77 838.703C1894.06 842.37 1898.25 844.203 1903.32 844.203C1908.39 844.203 1912.54 842.384 1915.78 838.746C1919.04 835.079 1920.68 829.594 1920.68 822.289C1920.68 815.07 1919.09 809.685 1915.91 806.133C1912.76 802.581 1908.56 800.805 1903.32 800.805C1898.07 800.805 1893.85 802.609 1890.64 806.219C1887.43 809.799 1885.83 815.214 1885.83 822.461ZM1968.29 854V791.008H1988.7C1996.43 791.008 2001.47 791.323 2003.82 791.953C2007.43 792.898 2010.45 794.961 2012.89 798.141C2015.32 801.292 2016.54 805.374 2016.54 810.387C2016.54 814.254 2015.84 817.505 2014.43 820.141C2013.03 822.776 2011.24 824.853 2009.06 826.371C2006.91 827.861 2004.72 828.849 2002.49 829.336C1999.45 829.938 1995.05 830.238 1989.3 830.238H1981V854H1968.29ZM1981 801.664V819.539H1987.96C1992.98 819.539 1996.33 819.21 1998.02 818.551C1999.71 817.892 2001.03 816.861 2001.97 815.457C2002.95 814.053 2003.43 812.421 2003.43 810.559C2003.43 808.267 2002.76 806.376 2001.41 804.887C2000.07 803.397 1998.36 802.466 1996.3 802.094C1994.78 801.807 1991.73 801.664 1987.15 801.664H1981ZM2077.25 854H2063.42L2057.92 839.691H2032.74L2027.54 854H2014.05L2038.58 791.008H2052.03L2077.25 854ZM2053.84 829.078L2045.16 805.703L2036.65 829.078H2053.84ZM2084.09 854V791.008H2110.86C2117.59 791.008 2122.47 791.581 2125.51 792.727C2128.57 793.844 2131.02 795.849 2132.86 798.742C2134.69 801.635 2135.61 804.944 2135.61 808.668C2135.61 813.395 2134.22 817.305 2131.44 820.398C2128.66 823.464 2124.51 825.397 2118.98 826.199C2121.73 827.803 2123.99 829.565 2125.77 831.484C2127.57 833.404 2129.99 836.812 2133.03 841.711L2140.72 854H2125.51L2116.31 840.293C2113.05 835.395 2110.81 832.315 2109.61 831.055C2108.41 829.766 2107.13 828.892 2105.79 828.434C2104.44 827.947 2102.3 827.703 2099.38 827.703H2096.8V854H2084.09ZM2096.8 817.648H2106.21C2112.32 817.648 2116.13 817.391 2117.64 816.875C2119.16 816.359 2120.35 815.471 2121.21 814.211C2122.07 812.951 2122.5 811.375 2122.5 809.484C2122.5 807.365 2121.93 805.66 2120.78 804.371C2119.66 803.053 2118.07 802.223 2116.01 801.879C2114.98 801.736 2111.89 801.664 2106.73 801.664H2096.8V817.648ZM2204.44 854H2190.61L2185.11 839.691H2159.93L2154.73 854H2141.23L2165.77 791.008H2179.22L2204.44 854ZM2181.02 829.078L2172.34 805.703L2163.84 829.078H2181.02ZM2211.36 854V791.008H2223.73L2249.52 833.074V791.008H2261.33V854H2248.57L2223.18 812.922V854H2211.36ZM2331.63 854H2317.79L2312.29 839.691H2287.11L2281.91 854H2268.42L2292.96 791.008H2306.41L2331.63 854ZM2308.21 829.078L2299.53 805.703L2291.02 829.078H2308.21ZM2292.23 787.398L2298.16 774.551H2311.69L2299.88 787.398H2292.23Z" fill="#231F20" stroke="#ffffff" stroke-width="2"/>
</svg>
